<svg width="24" height="24" viewBox="0 0 24 24" fill="none" xmlns="http://www.w3.org/2000/svg">
<path d="M18.7101 8.2101C18.6171 8.11638 18.5065 8.04198 18.3846 7.99121C18.2628 7.94044 18.1321 7.91431 18.0001 7.91431C17.868 7.91431 17.7373 7.94044 17.6155 7.99121C17.4936 8.04198 17.383 8.11638 17.2901 8.2101L12.7101 12.7901C12.6171 12.8838 12.5065 12.9582 12.3846 13.009C12.2628 13.0598 12.1321 13.0859 12.0001 13.0859C11.868 13.0859 11.7373 13.0598 11.6155 13.009C11.4936 12.9582 11.383 12.8838 11.2901 12.7901L6.71006 8.2101C6.6171 8.11638 6.5065 8.04198 6.38464 7.99121C6.26278 7.94044 6.13207 7.91431 6.00006 7.91431C5.86805 7.91431 5.73734 7.94044 5.61548 7.99121C5.49362 8.04198 5.38302 8.11638 5.29006 8.2101C5.10381 8.39747 4.99927 8.65092 4.99927 8.9151C4.99927 9.17929 5.10381 9.43274 5.29006 9.6201L9.88006 14.2101C10.4426 14.7719 11.2051 15.0875 12.0001 15.0875C12.7951 15.0875 13.5576 14.7719 14.1201 14.2101L18.7101 9.6201C18.8963 9.43274 19.0009 9.17929 19.0009 8.9151C19.0009 8.65092 18.8963 8.39747 18.7101 8.2101Z" fill="white"/>
</svg>
