<svg width="512" height="512" viewBox="0 0 512 512" fill="none" xmlns="http://www.w3.org/2000/svg">
<g clip-path="url(#clip0_455_528)">
<path d="M503.915 145.835L475.072 85.5467C467.627 69.9734 453.952 57.8987 437.568 52.4374L303.232 7.65872C272.768 -2.49594 239.232 -2.49594 208.768 7.65872L74.4533 52.4374C58.048 57.8987 44.3733 69.9947 36.928 85.5894L9.49332 143.339C-0.682677 160.235 -2.60268 180.501 4.22399 198.997C10.816 216.917 24.7893 230.784 42.6667 237.312L42.56 372.011C42.5173 418.048 71.8293 458.752 115.477 473.301L208.597 504.341C223.829 509.419 239.829 511.957 255.829 511.957C271.829 511.957 287.829 509.419 303.061 504.341L396.267 473.259C439.851 458.731 469.163 418.112 469.205 372.16L469.312 237.333C487.36 230.997 501.483 217.152 508.117 199.147C514.88 180.843 513.003 160.768 503.915 145.835ZM222.272 48.1494C244.032 40.8961 267.989 40.8961 289.728 48.1494L380.352 78.3574L256.149 119.957L131.691 78.3574L222.272 48.1494ZM47.0187 163.541L75.328 104.192C76.352 104.725 225.877 154.816 225.877 154.816L191.296 224.32C186.197 232.811 175.616 236.736 166.272 233.579L57.8773 197.461C51.5413 195.349 46.5707 190.528 44.2453 184.256C41.92 177.984 42.5813 171.115 46.9973 163.563L47.0187 163.541ZM128.96 432.832C102.763 424.107 85.184 399.68 85.2053 372.075L85.312 251.584L152.768 274.069C181.44 283.627 212.331 272.213 228.693 244.821L234.624 232.939L234.517 467.2C230.315 466.347 226.176 465.259 222.123 463.893L128.981 432.853L128.96 432.832ZM382.763 432.811L289.536 463.893C285.483 465.237 281.344 466.347 277.141 467.2L277.248 232.64L284.053 246.293C295.915 266.091 316.736 277.419 338.688 277.419C345.493 277.419 352.405 276.331 359.168 274.069L426.603 251.605L426.496 372.16C426.496 399.723 408.875 424.107 382.72 432.832L382.763 432.811ZM468.096 184.405C465.856 190.485 461.035 195.157 454.891 197.205L345.707 233.6C336.363 236.736 325.781 232.853 321.472 225.813L286.165 154.923C286.165 154.923 435.627 104.768 436.651 104.213L466.368 166.101C469.717 171.669 470.336 178.347 468.096 184.427V184.405Z" fill="#857567"/>
</g>
<defs>
<clipPath id="clip0_455_528">
<rect width="512" height="512" fill="white"/>
</clipPath>
</defs>
</svg>
