<svg width="40" height="40" viewBox="0 0 40 40" fill="none" xmlns="http://www.w3.org/2000/svg">
<g clip-path="url(#clip0_216_16389)">
<path d="M35 0H10.8317C7.61667 0 5 2.61833 5 5.83333V11.6667C5 12.5867 5.74667 13.3333 6.66667 13.3333C7.58667 13.3333 8.33333 12.5867 8.33333 11.6667V5.83333C8.33333 4.455 9.455 3.33333 10.8333 3.33333C12.2117 3.33333 13.3333 4.455 13.3333 5.83333C13.3333 8.13 15.2033 10 17.5 10H31.6667V31.6667C31.6667 34.4233 29.4233 36.6667 26.6667 36.6667H23.3333C22.4133 36.6667 21.6667 37.4133 21.6667 38.3333C21.6667 39.2533 22.4133 40 23.3333 40H26.6667C31.2617 40 35 36.2617 35 31.6667V10H35.8333C38.13 10 40 8.13 40 5.83333V5C40 2.24333 37.7567 0 35 0ZM36.6667 5.83333C36.6667 6.29333 36.2933 6.66667 35.8333 6.66667H17.5C17.04 6.66667 16.6667 6.29333 16.6667 5.83333C16.6667 4.93833 16.4633 4.09167 16.1033 3.33333H35C35.9183 3.33333 36.6667 4.08167 36.6667 5V5.83333ZM14.1667 16.6667H5.83333C2.61667 16.6667 0 19.2833 0 22.5V34.1667C0 37.3833 2.61667 40 5.83333 40H14.1667C17.3833 40 20 37.3833 20 34.1667V22.5C20 19.2833 17.3833 16.6667 14.1667 16.6667ZM16.6667 34.1667C16.6667 35.545 15.545 36.6667 14.1667 36.6667H5.83333C4.455 36.6667 3.33333 35.545 3.33333 34.1667V22.5C3.33333 21.1217 4.455 20 5.83333 20H14.1667C15.545 20 16.6667 21.1217 16.6667 22.5V34.1667ZM15 23.3333C15 24.2533 14.2533 25 13.3333 25H6.66667C5.74667 25 5 24.2533 5 23.3333C5 22.4133 5.74667 21.6667 6.66667 21.6667H13.3333C14.2533 21.6667 15 22.4133 15 23.3333ZM15 28.3333C15 29.2533 14.2533 30 13.3333 30H12.5C11.58 30 10.8333 29.2533 10.8333 28.3333C10.8333 27.4133 11.58 26.6667 12.5 26.6667H13.3333C14.2533 26.6667 15 27.4133 15 28.3333ZM9.16667 28.3333C9.16667 29.2533 8.42 30 7.5 30H6.66667C5.74667 30 5 29.2533 5 28.3333C5 27.4133 5.74667 26.6667 6.66667 26.6667H7.5C8.42 26.6667 9.16667 27.4133 9.16667 28.3333ZM15 33.3333C15 34.2533 14.2533 35 13.3333 35H12.5C11.58 35 10.8333 34.2533 10.8333 33.3333C10.8333 32.4133 11.58 31.6667 12.5 31.6667H13.3333C14.2533 31.6667 15 32.4133 15 33.3333ZM9.16667 33.3333C9.16667 34.2533 8.42 35 7.5 35H6.66667C5.74667 35 5 34.2533 5 33.3333C5 32.4133 5.74667 31.6667 6.66667 31.6667H7.5C8.42 31.6667 9.16667 32.4133 9.16667 33.3333Z" fill="white"/>
</g>
<defs>
<clipPath id="clip0_216_16389">
<rect width="40" height="40" fill="white"/>
</clipPath>
</defs>
</svg>
