<svg width="13" height="14" viewBox="0 0 13 14" fill="none" xmlns="http://www.w3.org/2000/svg">
<path d="M12.5 0.999818C12.3125 0.812347 12.0582 0.707031 11.793 0.707031C11.5278 0.707031 11.2735 0.812347 11.086 0.999818L6.5 5.58582L1.914 0.999818C1.72647 0.812347 1.47217 0.707031 1.207 0.707031C0.941837 0.707031 0.687529 0.812347 0.500001 0.999818C0.31253 1.18735 0.207214 1.44165 0.207214 1.70682C0.207214 1.97198 0.31253 2.22629 0.500001 2.41382L5.086 6.99982L0.500001 11.5858C0.31253 11.7733 0.207214 12.0277 0.207214 12.2928C0.207214 12.558 0.31253 12.8123 0.500001 12.9998C0.687529 13.1873 0.941837 13.2926 1.207 13.2926C1.47217 13.2926 1.72647 13.1873 1.914 12.9998L6.5 8.41382L11.086 12.9998C11.2735 13.1873 11.5278 13.2926 11.793 13.2926C12.0582 13.2926 12.3125 13.1873 12.5 12.9998C12.6875 12.8123 12.7928 12.558 12.7928 12.2928C12.7928 12.0277 12.6875 11.7733 12.5 11.5858L7.914 6.99982L12.5 2.41382C12.6875 2.22629 12.7928 1.97198 12.7928 1.70682C12.7928 1.44165 12.6875 1.18735 12.5 0.999818Z" fill="white"/>
</svg>
