<svg width="24" height="25" viewBox="0 0 24 25" fill="none" xmlns="http://www.w3.org/2000/svg">
<g clip-path="url(#clip0_216_17951)">
<path d="M22.3191 4.93101L8.50012 18.749C8.40721 18.8423 8.2968 18.9163 8.17522 18.9668C8.05363 19.0173 7.92327 19.0433 7.79162 19.0433C7.65997 19.0433 7.52961 19.0173 7.40803 18.9668C7.28644 18.9163 7.17603 18.8423 7.08312 18.749L1.73912 13.4C1.64621 13.3067 1.5358 13.2327 1.41422 13.1822C1.29263 13.1317 1.16228 13.1057 1.03062 13.1057C0.898968 13.1057 0.768609 13.1317 0.647027 13.1822C0.525444 13.2327 0.415031 13.3067 0.322121 13.4C0.228845 13.4929 0.154832 13.6033 0.10433 13.7249C0.0538287 13.8465 0.027832 13.9769 0.027832 14.1085C0.027832 14.2402 0.0538287 14.3705 0.10433 14.4921C0.154832 14.6137 0.228845 14.7241 0.322121 14.817L5.66812 20.162C6.23207 20.7249 6.99632 21.0411 7.79312 21.0411C8.58992 21.0411 9.35417 20.7249 9.91812 20.162L23.7361 6.34701C23.8292 6.25412 23.9031 6.14377 23.9535 6.02228C24.004 5.90079 24.0299 5.77054 24.0299 5.63901C24.0299 5.50747 24.004 5.37723 23.9535 5.25574C23.9031 5.13425 23.8292 5.0239 23.7361 4.93101C23.6432 4.83773 23.5328 4.76372 23.4112 4.71322C23.2896 4.66272 23.1593 4.63672 23.0276 4.63672C22.896 4.63672 22.7656 4.66272 22.644 4.71322C22.5224 4.76372 22.412 4.83773 22.3191 4.93101Z" fill="#196F3D"/>
</g>
<defs>
<clipPath id="clip0_216_17951">
<rect width="24" height="24" fill="white" transform="translate(0 0.5)"/>
</clipPath>
</defs>
</svg>
