<svg width="40" height="41" viewBox="0 0 40 41" fill="none" xmlns="http://www.w3.org/2000/svg">
<g clip-path="url(#clip0_214_79)">
<path d="M20 40.6667C8.97167 40.6667 0 31.6951 0 20.6667C0 9.63841 8.97167 0.666748 20 0.666748C31.0283 0.666748 40 9.63841 40 20.6667C40 31.6951 31.0283 40.6667 20 40.6667ZM20 4.00008C10.81 4.00008 3.33333 11.4767 3.33333 20.6667C3.33333 29.8567 10.81 37.3334 20 37.3334C29.19 37.3334 36.6667 29.8567 36.6667 20.6667C36.6667 11.4767 29.19 4.00008 20 4.00008ZM28.3333 20.6667C28.3333 19.7451 27.5883 19.0001 26.6667 19.0001H21.6667V10.6667C21.6667 9.74508 20.92 9.00008 20 9.00008C19.08 9.00008 18.3333 9.74508 18.3333 10.6667V20.6667C18.3333 21.5884 19.08 22.3334 20 22.3334H26.6667C27.5883 22.3334 28.3333 21.5884 28.3333 20.6667Z" fill="#BAA38F"/>
</g>
<defs>
<clipPath id="clip0_214_79">
<rect width="40" height="40" fill="white" transform="translate(0 0.666748)"/>
</clipPath>
</defs>
</svg>
