<svg width="40" height="40" viewBox="0 0 40 40" fill="none" xmlns="http://www.w3.org/2000/svg">
<g clip-path="url(#clip0_214_10181)">
<path d="M37.1984 7.38501L14.1667 30.415C14.0118 30.5705 13.8278 30.6938 13.6252 30.778C13.4225 30.8622 13.2053 30.9055 12.9859 30.9055C12.7664 30.9055 12.5492 30.8622 12.3465 30.778C12.1439 30.6938 11.9599 30.5705 11.805 30.415L2.89835 21.5C2.7435 21.3446 2.55948 21.2212 2.35684 21.137C2.15421 21.0529 1.93694 21.0095 1.71752 21.0095C1.4981 21.0095 1.28083 21.0529 1.0782 21.137C0.875558 21.2212 0.691535 21.3446 0.536686 21.5C0.381224 21.6549 0.25787 21.8389 0.173701 22.0415C0.0895314 22.2442 0.0462036 22.4614 0.0462036 22.6808C0.0462036 22.9003 0.0895314 23.1175 0.173701 23.3202C0.25787 23.5228 0.381224 23.7068 0.536686 23.8617L9.44669 32.77C10.3866 33.7082 11.6603 34.2351 12.9884 34.2351C14.3164 34.2351 15.5901 33.7082 16.53 32.77L39.56 9.74501C39.7152 9.59019 39.8384 9.40628 39.9224 9.20379C40.0064 9.00131 40.0497 8.78424 40.0497 8.56501C40.0497 8.34579 40.0064 8.12872 39.9224 7.92623C39.8384 7.72375 39.7152 7.53983 39.56 7.38501C39.4052 7.22955 39.2211 7.1062 39.0185 7.02203C38.8159 6.93786 38.5986 6.89453 38.3792 6.89453C38.1598 6.89453 37.9425 6.93786 37.7399 7.02203C37.5372 7.1062 37.3532 7.22955 37.1984 7.38501Z" fill="#F0EBE7"/>
</g>
<defs>
<clipPath id="clip0_214_10181">
<rect width="40" height="40" fill="white"/>
</clipPath>
</defs>
</svg>
