<svg width="40" height="40" viewBox="0 0 40 40" fill="none" xmlns="http://www.w3.org/2000/svg">
<g clip-path="url(#clip0_214_10610)">
<path d="M31.6667 10H29.6233C31.9783 7.7 32.3383 4.675 30.5317 2.26666C29.6233 1.05333 28.2983 0.269997 26.8 0.0566636C25.2967 -0.16167 23.8083 0.226664 22.5983 1.13333C21.4683 1.98 20.635 3.05833 20.02 4.155C19.405 3.05666 18.5717 1.98 17.4417 1.13333C16.2317 0.224997 14.74 -0.16167 13.2417 0.0566636C11.7433 0.269997 10.4183 1.055 9.51 2.26666C7.71333 4.66166 8.06 7.66666 10.4217 10H8.33333C3.73833 10 0 13.7383 0 18.3333V31.6667C0 36.2617 3.73833 40 8.33333 40H31.6667C36.2617 40 40 36.2617 40 31.6667V18.3333C40 13.7383 36.2617 10 31.6667 10ZM24.6 3.8C25.0083 3.49333 25.495 3.33333 25.995 3.33333C26.6667 3.33333 27.4917 3.76833 27.8667 4.26666C28.935 5.69 27.9383 7.00666 27.295 7.62166C24.6933 9.93 21.9333 10 21.6983 10.0017H21.6767C21.7083 9.85 21.7183 9.69166 21.705 9.53L21.7017 9.495C21.85 8.49833 22.47 5.39666 24.6 3.8ZM12.7933 7.66C12.1033 7.00166 11.1083 5.69 12.1767 4.265C12.5517 3.76666 13.0967 3.44333 13.7133 3.355C14.335 3.275 14.945 3.42666 15.4433 3.8C17.575 5.39833 18.195 8.50333 18.3433 9.49333L18.34 9.52833C18.3267 9.69 18.3367 9.84833 18.3683 10H18.3467C18.1117 10 15.3517 9.92833 12.7933 7.66ZM8.33333 13.3317H18.04C16.7883 16.5833 11.93 16.6633 11.6633 16.665C10.7433 16.665 9.99833 17.4117 9.99833 18.3317C9.99833 19.2517 10.745 19.9983 11.665 19.9983C14.0267 19.9983 17.8267 19.185 19.9983 16.5717C22.17 19.1867 25.97 19.9983 28.3317 19.9983C29.2517 19.9983 29.9983 19.2533 29.9983 18.3317C29.9983 17.41 29.2517 16.665 28.3317 16.665C28.095 16.665 23.2017 16.6217 21.9533 13.3317H31.665C34.4217 13.3317 36.665 15.575 36.665 18.3317V28.3317H3.33333V18.3317C3.33333 15.575 5.57667 13.3317 8.33333 13.3317ZM31.6667 36.665H8.33333C5.57667 36.665 3.33333 34.4217 3.33333 31.665H36.6667C36.6667 34.4217 34.4233 36.665 31.6667 36.665Z" fill="#BAA38F"/>
</g>
<defs>
<clipPath id="clip0_214_10610">
<rect width="40" height="40" fill="white"/>
</clipPath>
</defs>
</svg>
