<svg width="40" height="40" viewBox="0 0 40 40" fill="none" xmlns="http://www.w3.org/2000/svg">
<path d="M36.6667 9.5475V3.34083C36.6667 2.42083 35.9217 1.67417 35 1.67417C34.0783 1.67417 33.3333 2.42083 33.3333 3.34083V7.28417L24.6617 1.4325C21.83 -0.4775 18.17 -0.4775 15.3383 1.4325L3.67167 9.30583C1.37333 10.8575 0 13.4392 0 16.2142V31.6742C0 36.2692 3.73833 40.0075 8.33333 40.0075H13.3333C14.255 40.0075 15 39.2608 15 38.3408V25.0075C15 24.0892 15.7467 23.3408 16.6667 23.3408H23.3333C24.2533 23.3408 25 24.0892 25 25.0075V38.3408C25 39.2608 25.745 40.0075 26.6667 40.0075H31.6667C36.2617 40.0075 40 36.2692 40 31.6742V16.2142C40 13.5792 38.76 11.1175 36.6667 9.5475ZM36.6667 31.6742C36.6667 34.4308 34.4233 36.6742 31.6667 36.6742H28.3333V25.0075C28.3333 22.2508 26.09 20.0075 23.3333 20.0075H16.6667C13.91 20.0075 11.6667 22.2508 11.6667 25.0075V36.6742H8.33333C5.57667 36.6742 3.33333 34.4308 3.33333 31.6742V16.2142C3.33333 14.5492 4.15667 12.9992 5.53667 12.0692L17.2033 4.19583C18.9033 3.04917 21.0967 3.04917 22.795 4.19583L34.4617 12.0692C35.8417 12.9992 36.665 14.5492 36.665 16.2142L36.6667 31.6742Z" fill="#2D1705"/>
</svg>
