<svg width="482" height="120" viewBox="0 0 482 120" fill="none" xmlns="http://www.w3.org/2000/svg">
<circle cx="60" cy="60" r="60" fill="#FF01FB"/>
<path d="M34.7656 90L30.0406 85.3333L64.6344 51.1667C63.6219 48.8333 63.4813 46.1944 64.2125 43.25C64.9438 40.3056 66.5469 37.6667 69.0219 35.3333C72.0032 32.3889 75.3219 30.6667 78.9782 30.1667C82.6344 29.6667 85.6157 30.5556 87.9219 32.8333C90.2282 35.1111 91.1282 38.0556 90.6219 41.6667C90.1157 45.2778 88.3719 48.5556 85.3907 51.5C83.0282 53.9444 80.3563 55.5278 77.375 56.25C74.3938 56.9722 71.7219 56.8333 69.3594 55.8333L65.1407 60L90.7907 85.3333L86.0657 90L60.4156 64.8333L34.7656 90ZM44.7219 61.5L34.5969 51.5C31.5594 48.5 30.0406 44.9167 30.0406 40.75C30.0406 36.5833 31.5594 33 34.5969 30L55.5219 50.8333L44.7219 61.5Z" fill="white"/>
<circle cx="60.5" cy="60.5" r="56" stroke="white" stroke-width="3"/>
<path d="M127.523 31.9688C129.19 32.2292 130.701 32.4635 132.055 32.6719C133.409 32.8281 134.581 32.9583 135.57 33.0625C136.716 33.2188 137.732 33.349 138.617 33.4531C139.711 33.6094 141.352 33.4271 143.539 32.9062C145.727 32.3333 148.122 31.8125 150.727 31.3438C153.383 30.8229 156.091 30.5365 158.852 30.4844C161.612 30.3802 164.138 30.875 166.43 31.9688C168.721 33.0625 170.596 34.1562 172.055 35.25C173.513 36.3438 174.659 37.5156 175.492 38.7656C176.378 39.9635 177.003 41.2396 177.367 42.5938C177.732 43.9479 177.94 45.4323 177.992 47.0469C177.94 49.4427 177.367 51.7604 176.273 54C175.805 54.9375 175.18 55.9271 174.398 56.9688C173.669 57.9583 172.758 58.9219 171.664 59.8594C170.57 60.7969 169.268 61.6823 167.758 62.5156C166.299 63.349 164.581 64.0781 162.602 64.7031C164.529 65.276 166.117 65.9531 167.367 66.7344C168.669 67.5156 169.711 68.2448 170.492 68.9219C171.43 69.7552 172.133 70.5625 172.602 71.3438C173.174 72.4375 173.565 73.375 173.773 74.1562C173.982 74.9375 174.112 75.6927 174.164 76.4219C174.268 77.099 174.398 77.8021 174.555 78.5312C174.711 79.2604 175.049 80.0938 175.57 81.0312C175.987 81.7604 176.482 82.5156 177.055 83.2969C177.576 83.974 178.174 84.7031 178.852 85.4844C179.581 86.2656 180.466 87.0208 181.508 87.75C180.049 87.8021 178.695 87.8281 177.445 87.8281C176.247 87.8281 175.206 87.8281 174.32 87.8281C173.279 87.8281 172.289 87.8021 171.352 87.75C170.414 87.6979 169.242 87.6719 167.836 87.6719C166.638 87.6719 165.102 87.6719 163.227 87.6719C161.404 87.6719 159.19 87.6979 156.586 87.75C157.732 86.8646 158.669 85.9792 159.398 85.0938C160.128 84.2083 160.701 83.401 161.117 82.6719C161.586 81.8385 161.924 81.0312 162.133 80.25C162.393 78.8438 162.419 77.3854 162.211 75.875C162.055 74.5729 161.638 73.1406 160.961 71.5781C160.284 69.9635 159.19 68.349 157.68 66.7344C156.169 66.9948 154.893 67.2031 153.852 67.3594C152.862 67.4635 152.003 67.5677 151.273 67.6719C150.44 67.776 149.763 67.8542 149.242 67.9062C148.773 67.9583 148.253 68.0104 147.68 68.0625C147.211 68.1146 146.69 68.1927 146.117 68.2969C145.596 68.349 145.102 68.4271 144.633 68.5312C144.529 70.7708 144.529 72.724 144.633 74.3906C144.737 76.0052 144.867 77.3594 145.023 78.4531C145.232 79.7552 145.466 80.875 145.727 81.8125C145.987 82.75 146.352 83.6615 146.82 84.5469C147.185 85.276 147.654 86.0573 148.227 86.8906C148.799 87.6719 149.451 88.3229 150.18 88.8438C148.826 88.8438 147.523 88.8438 146.273 88.8438C145.076 88.8438 143.982 88.8177 142.992 88.7656C141.846 88.7656 140.753 88.7396 139.711 88.6875C138.669 88.6354 137.497 88.6094 136.195 88.6094C135.102 88.6094 133.799 88.6094 132.289 88.6094C130.831 88.6094 129.242 88.6354 127.523 88.6875C128.878 87.2812 129.945 86.0833 130.727 85.0938C131.508 84.1042 132.107 83.2708 132.523 82.5938C132.992 81.8646 133.279 81.2396 133.383 80.7188C133.487 79.8854 133.565 78.401 133.617 76.2656C133.721 74.0781 133.799 71.5781 133.852 68.7656C133.904 65.9531 133.93 63.0104 133.93 59.9375C133.93 56.8646 133.904 54 133.852 51.3438C133.799 48.6354 133.747 46.3177 133.695 44.3906C133.643 42.4635 133.591 41.2396 133.539 40.7188C133.383 39.7812 133.044 38.8438 132.523 37.9062C132.107 37.0729 131.508 36.1354 130.727 35.0938C129.945 34.0521 128.878 33.0104 127.523 31.9688ZM157.055 59.4688C157.576 59.1562 158.018 58.8438 158.383 58.5312C158.747 58.2188 159.06 57.724 159.32 57.0469C159.581 56.3177 159.789 55.3021 159.945 54C160.154 52.6979 160.388 50.9271 160.648 48.6875C160.857 46.4479 160.701 44.599 160.18 43.1406C159.711 41.6823 159.06 40.5365 158.227 39.7031C157.445 38.8177 156.56 38.2188 155.57 37.9062C154.633 37.5417 153.799 37.3594 153.07 37.3594C151.612 37.3594 150.18 37.8021 148.773 38.6875C147.367 39.5729 146.299 40.7708 145.57 42.2812C145.31 42.9583 145.076 44.0781 144.867 45.6406C144.711 46.9948 144.607 48.8698 144.555 51.2656C144.503 53.6615 144.581 56.8125 144.789 60.7188C146.768 61.0312 148.513 61.1615 150.023 61.1094C151.534 61.0052 152.81 60.8229 153.852 60.5625C155.102 60.3021 156.169 59.9375 157.055 59.4688ZM168.742 35.6406C172.388 35.7448 175.409 35.8229 177.805 35.875C180.253 35.875 182.232 35.875 183.742 35.875H187.883H211.164C211.268 36.9167 211.346 37.9323 211.398 38.9219C211.503 39.8594 211.555 40.6927 211.555 41.4219C211.555 42.3073 211.529 43.1146 211.477 43.8438C211.424 44.5729 211.346 45.3542 211.242 46.1875C211.138 46.9167 211.034 47.6979 210.93 48.5312C210.826 49.3646 210.643 50.224 210.383 51.1094C209.654 48.2969 208.664 46.1615 207.414 44.7031C206.216 43.2448 204.992 42.1771 203.742 41.5C202.284 40.7188 200.747 40.3021 199.133 40.25C196.997 40.3542 195.331 40.5365 194.133 40.7969C192.935 41.0573 191.997 41.4219 191.32 41.8906C190.643 42.3594 190.122 42.9062 189.758 43.5312C189.445 44.1042 189.107 44.7552 188.742 45.4844C188.43 46.1094 188.143 47.0729 187.883 48.375C187.622 49.4688 187.362 50.9531 187.102 52.8281C186.893 54.7031 186.659 57.125 186.398 60.0938C187.805 59.6771 188.924 59.2865 189.758 58.9219C190.643 58.5573 191.346 58.2448 191.867 57.9844C192.44 57.6719 192.857 57.3854 193.117 57.125C193.326 56.8125 193.638 56.2396 194.055 55.4062C194.367 54.6771 194.784 53.6875 195.305 52.4375C195.878 51.1875 196.555 49.4688 197.336 47.2812C197.44 49.6771 197.492 51.6823 197.492 53.2969C197.492 54.8594 197.518 56.1354 197.57 57.125C197.57 58.2708 197.596 59.1823 197.648 59.8594V62.8281C197.648 63.9219 197.648 65.4062 197.648 67.2812C197.701 69.1042 197.779 71.4219 197.883 74.2344C197.258 72.3073 196.685 70.7969 196.164 69.7031C195.695 68.5573 195.279 67.6979 194.914 67.125C194.497 66.4479 194.133 65.9792 193.82 65.7188C193.456 65.6146 192.961 65.5104 192.336 65.4062C191.763 65.3542 191.034 65.3281 190.148 65.3281C189.315 65.3281 188.247 65.4583 186.945 65.7188C186.789 68.5833 186.763 70.901 186.867 72.6719C187.023 74.3906 187.232 75.7188 187.492 76.6562C187.753 77.75 188.065 78.5312 188.43 79C188.898 79.4688 189.836 79.8594 191.242 80.1719C192.648 80.4323 194.237 80.5365 196.008 80.4844C197.831 80.3802 199.68 80.0677 201.555 79.5469C203.43 79.026 205.096 78.1667 206.555 76.9688C207.648 75.9792 208.82 74.7292 210.07 73.2188C211.112 71.9167 212.258 70.276 213.508 68.2969C214.81 66.3177 216.086 63.9219 217.336 61.1094C217.128 63.4531 216.971 65.4062 216.867 66.9688C216.815 68.4792 216.737 69.7031 216.633 70.6406C216.529 71.7344 216.451 72.5677 216.398 73.1406C216.398 73.7656 216.32 74.651 216.164 75.7969C216.06 76.7865 215.878 78.1406 215.617 79.8594C215.409 81.526 215.122 83.6615 214.758 86.2656C212.31 86.3177 209.992 86.3698 207.805 86.4219C205.617 86.4219 203.69 86.4479 202.023 86.5C200.044 86.5521 198.221 86.6042 196.555 86.6562C194.836 86.6562 192.935 86.7344 190.852 86.8906C189.029 86.9948 186.867 87.151 184.367 87.3594C181.919 87.5677 179.211 87.8542 176.242 88.2188C176.503 84.6771 176.685 81.3438 176.789 78.2188C176.945 75.0417 177.049 72.2552 177.102 69.8594C177.154 67.0469 177.154 64.4427 177.102 62.0469C177.362 56.0573 177.258 51.2135 176.789 47.5156C176.32 43.8177 175.773 41.4479 175.148 40.4062C174.836 40.0417 174.393 39.599 173.82 39.0781C173.352 38.6615 172.701 38.1667 171.867 37.5938C171.034 37.0208 169.992 36.3698 168.742 35.6406ZM262.383 31.8125C261.654 33.4792 261.003 34.9375 260.43 36.1875C259.857 37.4375 259.362 38.5052 258.945 39.3906C258.477 40.3802 258.086 41.2656 257.773 42.0469C257.513 42.6198 257.174 43.401 256.758 44.3906C256.341 45.276 255.82 46.4479 255.195 47.9062C254.622 49.3125 253.867 51.1354 252.93 53.375C252.461 51.4479 251.888 49.7552 251.211 48.2969C250.534 46.8385 249.805 45.5625 249.023 44.4688C248.242 43.375 247.409 42.4896 246.523 41.8125C245.69 41.0833 244.857 40.4844 244.023 40.0156C242.096 38.974 240.065 38.401 237.93 38.2969C235.117 38.4531 232.904 38.9219 231.289 39.7031C229.727 40.4323 228.581 41.2917 227.852 42.2812C227.122 43.2188 226.732 44.2083 226.68 45.25C226.628 46.2396 226.758 47.0729 227.07 47.75C227.331 48.375 228.242 49.1042 229.805 49.9375C231.419 50.7708 233.346 51.7344 235.586 52.8281C237.878 53.8698 240.326 55.0677 242.93 56.4219C245.534 57.724 247.93 59.1823 250.117 60.7969C252.357 62.3594 254.232 64.0781 255.742 65.9531C257.305 67.776 258.164 69.7292 258.32 71.8125C258.477 74.4688 258.451 76.8646 258.242 79C258.034 81.1354 257.305 82.9583 256.055 84.4688C254.805 85.9792 252.852 87.1771 250.195 88.0625C247.591 88.9479 243.971 89.4948 239.336 89.7031C234.544 89.9115 230.612 89.651 227.539 88.9219C224.466 88.1927 221.966 87.2031 220.039 85.9531C218.164 84.7031 216.758 83.3229 215.82 81.8125C214.935 80.3021 214.284 78.8698 213.867 77.5156C213.451 76.1094 213.164 74.9115 213.008 73.9219C212.852 72.8802 212.591 72.2552 212.227 72.0469C211.81 71.7865 211.393 71.5521 210.977 71.3438C210.612 71.1354 210.221 70.9531 209.805 70.7969C209.388 70.5885 208.971 70.4062 208.555 70.25L231.289 66.5781C229.987 67.6198 228.971 68.5833 228.242 69.4688C227.565 70.3542 227.044 71.1354 226.68 71.8125C226.263 72.5938 225.977 73.3229 225.82 74C225.716 74.7292 225.951 75.6406 226.523 76.7344C227.096 77.8281 227.878 78.8958 228.867 79.9375C229.909 80.9271 231.107 81.7604 232.461 82.4375C233.815 83.1146 235.221 83.401 236.68 83.2969C238.503 83.1406 239.987 82.6979 241.133 81.9688C242.279 81.1875 243.138 80.224 243.711 79.0781C244.336 77.9323 244.701 76.6823 244.805 75.3281C244.909 73.974 244.779 72.6458 244.414 71.3438C244.102 69.9896 243.581 68.7396 242.852 67.5938C242.122 66.3958 241.263 65.4062 240.273 64.625C239.388 64 238.008 63.401 236.133 62.8281C234.31 62.2552 232.253 61.6302 229.961 60.9531C227.721 60.276 225.404 59.4948 223.008 58.6094C220.664 57.724 218.529 56.6302 216.602 55.3281C214.727 54.026 213.216 52.4896 212.07 50.7188C210.977 48.9479 210.56 46.8125 210.82 44.3125C211.029 42.1771 211.706 40.4062 212.852 39C214.049 37.5417 215.534 36.3958 217.305 35.5625C219.128 34.6771 221.133 34.026 223.32 33.6094C225.56 33.1927 227.826 32.9583 230.117 32.9062C232.461 32.8021 234.753 32.8281 236.992 32.9844C239.284 33.1406 241.341 33.3229 243.164 33.5312C244.987 33.7396 246.523 33.9479 247.773 34.1562C249.076 34.3125 249.883 34.4167 250.195 34.4688C251.549 34.5729 252.904 34.5469 254.258 34.3906C255.456 34.2865 256.758 34.0521 258.164 33.6875C259.622 33.2708 261.029 32.6458 262.383 31.8125ZM252.43 31.9688C255.919 32.3854 258.94 32.6979 261.492 32.9062C264.044 33.0625 266.154 33.1927 267.82 33.2969C269.747 33.401 271.362 33.4271 272.664 33.375C274.018 33.3229 275.867 33.1927 278.211 32.9844C280.19 32.8281 282.794 32.6198 286.023 32.3594C289.253 32.0469 293.289 31.6302 298.133 31.1094C298.185 32.3073 298.211 33.4792 298.211 34.625C298.263 35.7188 298.315 36.6823 298.367 37.5156C298.419 38.5052 298.445 39.4167 298.445 40.25C298.445 41.1354 298.393 42.2552 298.289 43.6094C298.185 44.7552 298.003 46.2135 297.742 47.9844C297.534 49.7031 297.195 51.7604 296.727 54.1562C295.997 51.3438 295.294 49.0781 294.617 47.3594C293.94 45.5885 293.315 44.1823 292.742 43.1406C292.117 41.9427 291.492 41.0312 290.867 40.4062C290.19 39.9375 289.383 39.5469 288.445 39.2344C287.612 38.974 286.544 38.7656 285.242 38.6094C283.992 38.4531 282.508 38.4792 280.789 38.6875C280.529 45.5625 280.346 51.1354 280.242 55.4062C280.138 59.6771 280.06 63.0104 280.008 65.4062C279.956 68.2708 279.93 70.3281 279.93 71.5781C279.982 73.349 280.268 75.0938 280.789 76.8125C281.206 78.2708 281.883 79.7812 282.82 81.3438C283.758 82.9062 285.112 84.2865 286.883 85.4844H277.352C276.466 85.4844 275.372 85.5365 274.07 85.6406C272.977 85.7448 271.57 85.849 269.852 85.9531C268.185 86.0573 266.232 86.2396 263.992 86.5C264.773 85.1458 265.398 83.9219 265.867 82.8281C266.336 81.7344 266.701 80.7969 266.961 80.0156C267.273 79.0781 267.508 78.2448 267.664 77.5156C267.716 76.474 267.846 74.3646 268.055 71.1875C268.107 69.8854 268.159 68.2708 268.211 66.3438C268.315 64.4167 268.419 62.125 268.523 59.4688C268.68 56.8125 268.81 53.7656 268.914 50.3281C269.07 46.8385 269.227 42.9062 269.383 38.5312C268.445 38.2708 267.56 38.2969 266.727 38.6094C265.893 38.8698 265.164 39.2083 264.539 39.625C263.81 40.1458 263.107 40.7708 262.43 41.5C261.753 42.3854 260.997 43.5312 260.164 44.9375C259.435 46.1354 258.602 47.724 257.664 49.7031C256.727 51.6302 255.659 54.026 254.461 56.8906C254.201 53.8698 254.018 51.3958 253.914 49.4688C253.81 47.4896 253.732 45.9531 253.68 44.8594C253.628 43.5573 253.602 42.5938 253.602 41.9688C253.602 41.3958 253.549 40.6406 253.445 39.7031C253.341 38.9219 253.211 37.9062 253.055 36.6562C252.898 35.3542 252.69 33.7917 252.43 31.9688ZM317.398 30.0938C320.211 30.1979 323.049 30.7188 325.914 31.6562C328.831 32.5417 331.513 34 333.961 36.0312C336.409 38.0104 338.492 40.5885 340.211 43.7656C341.93 46.8906 342.997 50.7188 343.414 55.25C343.779 58.9479 343.31 62.6198 342.008 66.2656C340.758 69.8594 339.013 73.1667 336.773 76.1875C334.534 79.2083 331.956 81.7865 329.039 83.9219C326.122 86.0052 323.206 87.3854 320.289 88.0625C318.518 88.4792 316.565 88.5312 314.43 88.2188C312.346 87.8542 310.211 87.2031 308.023 86.2656C305.888 85.276 303.779 84.026 301.695 82.5156C299.664 81.0052 297.815 79.2865 296.148 77.3594C294.482 75.3802 293.076 73.2448 291.93 70.9531C290.836 68.6615 290.159 66.2656 289.898 63.7656C289.638 61.6823 289.612 59.3906 289.82 56.8906C290.081 54.3385 290.576 51.8125 291.305 49.3125C292.086 46.7604 293.154 44.3125 294.508 41.9688C295.914 39.5729 297.685 37.4896 299.82 35.7188C301.956 33.8958 304.456 32.4896 307.32 31.5C310.237 30.4583 313.596 29.9896 317.398 30.0938ZM303.414 61.7344C302.685 67.3073 303.206 71.7865 304.977 75.1719C306.799 78.5573 309.534 80.6146 313.18 81.3438C314.951 81.7083 316.643 81.3438 318.258 80.25C319.924 79.1042 321.435 77.4635 322.789 75.3281C324.143 73.1927 325.315 70.6927 326.305 67.8281C327.294 64.9635 328.023 61.9688 328.492 58.8438C328.961 55.7188 328.987 52.9062 328.57 50.4062C328.206 47.8542 327.555 45.6927 326.617 43.9219C325.68 42.099 324.534 40.6927 323.18 39.7031C321.878 38.7135 320.523 38.1667 319.117 38.0625C316.669 37.9062 314.534 38.5573 312.711 40.0156C310.888 41.4219 309.352 43.2708 308.102 45.5625C306.852 47.8542 305.836 50.4323 305.055 53.2969C304.326 56.1615 303.779 58.974 303.414 61.7344ZM331.508 34.0781C333.227 34.2865 334.789 34.4427 336.195 34.5469C337.549 34.651 338.721 34.7552 339.711 34.8594C340.857 34.9635 341.872 35.0417 342.758 35.0938C343.695 35.0938 344.893 35.0677 346.352 35.0156C347.602 34.9635 349.19 34.8854 351.117 34.7812C353.044 34.6771 355.414 34.4948 358.227 34.2344C356.872 35.0156 355.753 35.7969 354.867 36.5781C354.034 37.3594 353.383 38.0625 352.914 38.6875C352.341 39.4167 351.924 40.1458 351.664 40.875C351.508 41.8646 351.56 43.7917 351.82 46.6562C351.924 47.8542 352.081 49.3385 352.289 51.1094C352.549 52.8281 352.862 54.8854 353.227 57.2812C353.643 59.625 354.138 62.3333 354.711 65.4062C355.336 68.4792 356.039 71.9688 356.82 75.875C357.862 72.9062 358.721 70.276 359.398 67.9844C360.076 65.6406 360.648 63.6354 361.117 61.9688C361.638 60.0938 362.081 58.4271 362.445 56.9688C362.81 55.4583 363.253 53.5052 363.773 51.1094C364.19 49.0781 364.737 46.4479 365.414 43.2188C366.091 39.9896 366.924 36.0052 367.914 31.2656L370.727 31.6562C370.987 35.3542 371.247 38.6094 371.508 41.4219C371.82 44.2344 372.081 46.6302 372.289 48.6094C372.497 50.901 372.706 52.8802 372.914 54.5469C373.122 56.0573 373.435 57.8021 373.852 59.7812C374.216 61.4479 374.685 63.5052 375.258 65.9531C375.831 68.349 376.586 71.0573 377.523 74.0781C378.461 70.3802 379.294 67.0729 380.023 64.1562C380.805 61.2396 381.456 58.6615 381.977 56.4219C382.549 54.1823 383.018 52.2552 383.383 50.6406C383.799 49.026 384.138 47.6719 384.398 46.5781C384.971 43.974 385.31 42.2292 385.414 41.3438C385.362 40.3542 385.128 39.3906 384.711 38.4531C384.346 37.6198 383.773 36.7083 382.992 35.7188C382.211 34.7292 381.065 33.7656 379.555 32.8281C382.732 32.9323 385.31 33.0104 387.289 33.0625C389.32 33.0625 390.935 33.0625 392.133 33.0625H395.258H398.07C399.112 33.0625 400.466 33.0625 402.133 33.0625C403.852 33.0104 406.039 32.9323 408.695 32.8281C406.404 34.026 404.555 35.1198 403.148 36.1094C401.742 37.099 400.648 37.9323 399.867 38.6094C398.93 39.4427 398.253 40.1458 397.836 40.7188C397.419 41.7604 396.742 44.1042 395.805 47.75C395.388 49.3125 394.919 51.2656 394.398 53.6094C393.878 55.901 393.253 58.6615 392.523 61.8906C391.846 65.1198 391.065 68.8958 390.18 73.2188C389.294 77.4896 388.305 82.3854 387.211 87.9062L373.695 86.5L367.914 62.2031C367.029 66.6302 366.326 70.224 365.805 72.9844C365.284 75.6927 364.893 77.8021 364.633 79.3125C364.32 81.1354 364.138 82.4635 364.086 83.2969C364.034 84.026 363.982 84.7292 363.93 85.4062C363.878 85.9792 363.799 86.6042 363.695 87.2812C363.643 87.9583 363.565 88.5833 363.461 89.1562H349.633C348.279 83.2188 347.055 77.9844 345.961 73.4531C344.919 68.8698 343.982 64.8594 343.148 61.4219C342.315 57.9844 341.586 55.0677 340.961 52.6719C340.388 50.276 339.867 48.2708 339.398 46.6562C338.357 42.9062 337.602 40.5885 337.133 39.7031C336.768 39.2865 336.299 38.7917 335.727 38.2188C335.258 37.75 334.685 37.1771 334.008 36.5C333.279 35.7708 332.445 34.9635 331.508 34.0781ZM387.883 35.6406C391.529 35.7448 394.549 35.8229 396.945 35.875C399.393 35.875 401.372 35.875 402.883 35.875H407.023H430.305C430.409 36.9167 430.487 37.9323 430.539 38.9219C430.643 39.8594 430.695 40.6927 430.695 41.4219C430.695 42.3073 430.669 43.1146 430.617 43.8438C430.565 44.5729 430.487 45.3542 430.383 46.1875C430.279 46.9167 430.174 47.6979 430.07 48.5312C429.966 49.3646 429.784 50.224 429.523 51.1094C428.794 48.2969 427.805 46.1615 426.555 44.7031C425.357 43.2448 424.133 42.1771 422.883 41.5C421.424 40.7188 419.888 40.3021 418.273 40.25C416.138 40.3542 414.471 40.5365 413.273 40.7969C412.076 41.0573 411.138 41.4219 410.461 41.8906C409.784 42.3594 409.263 42.9062 408.898 43.5312C408.586 44.1042 408.247 44.7552 407.883 45.4844C407.57 46.1094 407.284 47.0729 407.023 48.375C406.763 49.4688 406.503 50.9531 406.242 52.8281C406.034 54.7031 405.799 57.125 405.539 60.0938C406.945 59.6771 408.065 59.2865 408.898 58.9219C409.784 58.5573 410.487 58.2448 411.008 57.9844C411.581 57.6719 411.997 57.3854 412.258 57.125C412.466 56.8125 412.779 56.2396 413.195 55.4062C413.508 54.6771 413.924 53.6875 414.445 52.4375C415.018 51.1875 415.695 49.4688 416.477 47.2812C416.581 49.6771 416.633 51.6823 416.633 53.2969C416.633 54.8594 416.659 56.1354 416.711 57.125C416.711 58.2708 416.737 59.1823 416.789 59.8594V62.8281C416.789 63.9219 416.789 65.4062 416.789 67.2812C416.841 69.1042 416.919 71.4219 417.023 74.2344C416.398 72.3073 415.826 70.7969 415.305 69.7031C414.836 68.5573 414.419 67.6979 414.055 67.125C413.638 66.4479 413.273 65.9792 412.961 65.7188C412.596 65.6146 412.102 65.5104 411.477 65.4062C410.904 65.3542 410.174 65.3281 409.289 65.3281C408.456 65.3281 407.388 65.4583 406.086 65.7188C405.93 68.5833 405.904 70.901 406.008 72.6719C406.164 74.3906 406.372 75.7188 406.633 76.6562C406.893 77.75 407.206 78.5312 407.57 79C408.039 79.4688 408.977 79.8594 410.383 80.1719C411.789 80.4323 413.378 80.5365 415.148 80.4844C416.971 80.3802 418.82 80.0677 420.695 79.5469C422.57 79.026 424.237 78.1667 425.695 76.9688C426.789 75.9792 427.961 74.7292 429.211 73.2188C430.253 71.9167 431.398 70.276 432.648 68.2969C433.951 66.3177 435.227 63.9219 436.477 61.1094C436.268 63.4531 436.112 65.4062 436.008 66.9688C435.956 68.4792 435.878 69.7031 435.773 70.6406C435.669 71.7344 435.591 72.5677 435.539 73.1406C435.539 73.7656 435.461 74.651 435.305 75.7969C435.201 76.7865 435.018 78.1406 434.758 79.8594C434.549 81.526 434.263 83.6615 433.898 86.2656C431.451 86.3177 429.133 86.3698 426.945 86.4219C424.758 86.4219 422.831 86.4479 421.164 86.5C419.185 86.5521 417.362 86.6042 415.695 86.6562C413.977 86.6562 412.076 86.7344 409.992 86.8906C408.169 86.9948 406.008 87.151 403.508 87.3594C401.06 87.5677 398.352 87.8542 395.383 88.2188C395.643 84.6771 395.826 81.3438 395.93 78.2188C396.086 75.0417 396.19 72.2552 396.242 69.8594C396.294 67.0469 396.294 64.4427 396.242 62.0469C396.503 56.0573 396.398 51.2135 395.93 47.5156C395.461 43.8177 394.914 41.4479 394.289 40.4062C393.977 40.0417 393.534 39.599 392.961 39.0781C392.492 38.6615 391.841 38.1667 391.008 37.5938C390.174 37.0208 389.133 36.3698 387.883 35.6406ZM428.945 33.1406C430.612 33.5573 432.201 33.8698 433.711 34.0781C435.221 34.2865 436.549 34.4427 437.695 34.5469C439.049 34.7031 440.299 34.7552 441.445 34.7031C442.904 34.7031 444.727 34.5729 446.914 34.3125C449.154 34.0521 451.445 33.8177 453.789 33.6094C456.133 33.349 458.372 33.1927 460.508 33.1406C462.695 33.0365 464.466 33.1667 465.82 33.5312C467.174 33.8438 468.555 34.3385 469.961 35.0156C471.419 35.6406 472.747 36.4479 473.945 37.4375C475.143 38.375 476.133 39.4948 476.914 40.7969C477.695 42.0469 478.138 43.4792 478.242 45.0938C478.19 47.125 477.721 49.026 476.836 50.7969C476.107 52.3073 474.883 53.8698 473.164 55.4844C471.445 57.0469 468.971 58.2448 465.742 59.0781C467.357 59.2865 468.737 59.651 469.883 60.1719C471.081 60.6406 472.096 61.2135 472.93 61.8906C473.815 62.5156 474.518 63.2188 475.039 64C475.612 64.7812 476.055 65.5625 476.367 66.3438C477.148 68.1667 477.513 70.1979 477.461 72.4375C477.148 75.3542 476.549 77.6719 475.664 79.3906C474.831 81.1094 473.867 82.4375 472.773 83.375C471.68 84.3125 470.56 84.9635 469.414 85.3281C468.268 85.6927 467.227 85.9792 466.289 86.1875C465.352 86.3958 464.206 86.5 462.852 86.5C461.497 86.5 460.039 86.474 458.477 86.4219C456.966 86.3177 455.404 86.2396 453.789 86.1875C452.174 86.0833 450.638 86.0833 449.18 86.1875C447.982 86.2917 446.523 86.3958 444.805 86.5C443.346 86.6042 441.523 86.7344 439.336 86.8906C437.148 86.9948 434.596 87.125 431.68 87.2812C432.253 86.8646 432.721 86.3958 433.086 85.875C433.503 85.3021 433.841 84.8073 434.102 84.3906C434.362 83.8698 434.596 83.375 434.805 82.9062C434.961 82.4896 435.091 81.3438 435.195 79.4688C435.299 77.5938 435.378 75.3542 435.43 72.75C435.482 70.0938 435.508 67.2552 435.508 64.2344C435.56 61.1615 435.534 58.2188 435.43 55.4062C435.378 52.5417 435.273 50.0156 435.117 47.8281C435.013 45.5885 434.857 43.974 434.648 42.9844C434.336 41.8906 433.919 40.7708 433.398 39.625C432.982 38.6354 432.383 37.5677 431.602 36.4219C430.872 35.276 429.987 34.1823 428.945 33.1406ZM445.43 41.1094C445.43 41.3177 445.456 42.0208 445.508 43.2188C445.56 44.2604 445.612 45.875 445.664 48.0625C445.768 50.1979 445.898 53.2448 446.055 57.2031C447.357 57.776 448.633 58.0885 449.883 58.1406C451.133 58.1406 452.253 58.0885 453.242 57.9844C454.388 57.8281 455.482 57.5677 456.523 57.2031C457.93 56.6302 459.023 55.6927 459.805 54.3906C460.638 53.0885 461.185 51.7344 461.445 50.3281C461.758 48.8698 461.836 47.5156 461.68 46.2656C461.523 44.9635 461.185 44.026 460.664 43.4531C459.674 42.5677 458.451 41.8385 456.992 41.2656C455.742 40.7969 454.154 40.4844 452.227 40.3281C450.352 40.1198 448.086 40.3802 445.43 41.1094ZM445.039 78.1406C446.966 79.1302 448.659 79.7812 450.117 80.0938C451.576 80.4062 452.799 80.5625 453.789 80.5625C454.935 80.5625 455.924 80.4062 456.758 80.0938C457.747 79.625 458.711 79 459.648 78.2188C460.638 77.3854 461.367 76.4219 461.836 75.3281C462.357 74.1823 462.565 72.9323 462.461 71.5781C462.357 70.1719 461.758 68.6354 460.664 66.9688C459.674 65.7708 458.477 64.8333 457.07 64.1562C455.82 63.5833 454.232 63.2188 452.305 63.0625C450.43 62.9062 448.112 63.349 445.352 64.3906L445.039 78.1406Z" fill="#FF01FB"/>
</svg>
