<svg width="120" height="120" viewBox="0 0 120 120" fill="none" xmlns="http://www.w3.org/2000/svg">
<circle cx="60" cy="60" r="60" fill="#FF01FB"/>
<path d="M34.7656 90L30.0406 85.3333L64.6344 51.1667C63.6219 48.8333 63.4813 46.1944 64.2125 43.25C64.9438 40.3056 66.5469 37.6667 69.0219 35.3333C72.0032 32.3889 75.3219 30.6667 78.9782 30.1667C82.6344 29.6667 85.6157 30.5556 87.9219 32.8333C90.2282 35.1111 91.1282 38.0556 90.6219 41.6667C90.1157 45.2778 88.3719 48.5556 85.3907 51.5C83.0282 53.9444 80.3563 55.5278 77.375 56.25C74.3938 56.9722 71.7219 56.8333 69.3594 55.8333L65.1407 60L90.7907 85.3333L86.0657 90L60.4156 64.8333L34.7656 90ZM44.7219 61.5L34.5969 51.5C31.5594 48.5 30.0406 44.9167 30.0406 40.75C30.0406 36.5833 31.5594 33 34.5969 30L55.5219 50.8333L44.7219 61.5Z" fill="white"/>
<circle cx="60.5" cy="60.5" r="56" stroke="white" stroke-width="3"/>
</svg>
