<svg width="40" height="40" viewBox="0 0 40 40" fill="none" xmlns="http://www.w3.org/2000/svg">
<g clip-path="url(#clip0_239_777)">
<path d="M32.5 23.3333C34.8017 23.3333 36.6667 25.1983 36.6667 27.5C36.6667 29.8017 34.8017 31.6667 32.5 31.6667C30.1984 31.6667 28.3334 29.8017 28.3334 27.5C28.3334 25.1983 30.1984 23.3333 32.5 23.3333ZM15.8334 27.5C15.8334 29.8017 17.6984 31.6667 20 31.6667C22.3017 31.6667 24.1667 29.8017 24.1667 27.5C24.1667 25.1983 22.3017 23.3333 20 23.3333C17.6984 23.3333 15.8334 25.1983 15.8334 27.5ZM7.50002 23.3333C5.19836 23.3333 3.33335 25.1983 3.33335 27.5C3.33335 29.8017 5.19836 31.6667 7.50002 31.6667C9.80169 31.6667 11.6667 29.8017 11.6667 27.5C11.6667 25.1983 9.80169 23.3333 7.50002 23.3333ZM32.5 33.3333C30.1967 33.3333 28.0734 34.2167 26.5617 35.7217C24.83 34.2017 22.5034 33.3333 20 33.3333C17.4967 33.3333 15.17 34.2017 13.4384 35.7217C11.9267 34.2167 9.80336 33.3333 7.50002 33.3333C4.37502 33.3333 1.57502 34.95 0.193355 37.5517C-0.238312 38.365 0.0716883 39.3733 0.885022 39.8067C1.69836 40.2367 2.70836 39.9283 3.14002 39.115C3.92836 37.6267 5.64002 36.6667 7.50002 36.6667C9.36002 36.6667 11.0734 37.6267 11.86 39.115C11.875 39.1433 12.31 40 13.335 40C14.36 40 14.7 39.285 14.7134 39.2667C15.7967 37.6633 17.8234 36.6667 20 36.6667C22.1767 36.6667 24.2017 37.6633 25.2867 39.2667C25.3034 39.2917 25.7084 40 26.6684 40C27.6284 40 28.1267 39.1383 28.14 39.115C28.9284 37.6267 30.64 36.6667 32.5 36.6667C34.36 36.6667 36.0734 37.6267 36.86 39.115C37.16 39.68 37.7367 40 38.335 40C38.5984 40 38.865 39.9383 39.115 39.8067C39.9284 39.3733 40.2384 38.3667 39.8067 37.5517C38.425 34.9483 35.625 33.3333 32.5 33.3333ZM11.225 13.965L12.8634 13.0217C12.6484 12.325 12.5 11.6 12.5 10.8333C12.5 10.0667 12.6484 9.34167 12.8634 8.645L11.225 7.70167C10.4267 7.24333 10.1517 6.22333 10.6134 5.42667C11.07 4.62833 12.0917 4.35167 12.8884 4.815L14.5167 5.75333C15.525 4.66667 16.8384 3.87667 18.3317 3.535V1.66667C18.3317 0.745 19.0767 0 19.9984 0C20.92 0 21.665 0.745 21.665 1.66667V3.535C23.1584 3.87667 24.4734 4.665 25.48 5.75333L27.1084 4.815C27.9067 4.35333 28.925 4.63 29.3834 5.42667C29.8434 6.225 29.5684 7.24333 28.7717 7.70167L27.1334 8.645C27.3484 9.34167 27.4967 10.0667 27.4967 10.8333C27.4967 11.6 27.3484 12.325 27.1334 13.0217L28.7717 13.965C29.57 14.4233 29.845 15.4433 29.3834 16.24C29.075 16.775 28.515 17.075 27.9384 17.075C27.6567 17.075 27.37 17.0033 27.1084 16.8517L25.48 15.9133C24.4717 17 23.1584 17.79 21.665 18.1317V20C21.665 20.9217 20.92 21.6667 19.9984 21.6667C19.0767 21.6667 18.3317 20.9217 18.3317 20V18.1317C16.8384 17.79 15.5234 17.0017 14.5167 15.9133L12.8884 16.8517C12.6267 17.0033 12.34 17.075 12.0584 17.075C11.4817 17.075 10.92 16.775 10.6134 16.24C10.1534 15.4417 10.4284 14.4233 11.225 13.965ZM15.8334 10.8333C15.8334 13.1317 17.7017 15 20 15C22.2984 15 24.1667 13.1317 24.1667 10.8333C24.1667 8.535 22.2984 6.66667 20 6.66667C17.7017 6.66667 15.8334 8.535 15.8334 10.8333ZM1.66669 23.3333C2.58836 23.3333 3.33335 22.5883 3.33335 21.6667V16.6667C3.33335 14.8283 4.82836 13.3333 6.66669 13.3333C7.58836 13.3333 8.33336 12.5883 8.33336 11.6667C8.33336 10.745 7.58836 10 6.66669 10C2.99002 10 2.16413e-05 12.99 2.16413e-05 16.6667V21.6667C2.16413e-05 22.5883 0.745022 23.3333 1.66669 23.3333ZM33.3334 10C32.4117 10 31.6667 10.745 31.6667 11.6667C31.6667 12.5883 32.4117 13.3333 33.3334 13.3333C35.1717 13.3333 36.6667 14.8283 36.6667 16.6667V21.6667C36.6667 22.5883 37.4117 23.3333 38.3334 23.3333C39.255 23.3333 40 22.5883 40 21.6667V16.6667C40 12.99 37.01 10 33.3334 10Z" fill="white"/>
</g>
<defs>
<clipPath id="clip0_239_777">
<rect width="40" height="40" fill="white"/>
</clipPath>
</defs>
</svg>
