<svg width="40" height="41" viewBox="0 0 40 41" fill="none" xmlns="http://www.w3.org/2000/svg">
<g clip-path="url(#clip0_214_76)">
<path d="M20 10.3333C18.6814 10.3333 17.3925 10.7242 16.2962 11.4568C15.1999 12.1893 14.3454 13.2305 13.8408 14.4487C13.3362 15.6669 13.2042 17.0073 13.4614 18.3005C13.7186 19.5937 14.3536 20.7816 15.2859 21.714C16.2183 22.6463 17.4062 23.2813 18.6994 23.5385C19.9926 23.7957 21.333 23.6637 22.5512 23.1591C23.7694 22.6545 24.8106 21.8 25.5431 20.7037C26.2757 19.6074 26.6666 18.3185 26.6666 16.9999C26.6666 15.2318 25.9643 13.5361 24.714 12.2859C23.4638 11.0356 21.7681 10.3333 20 10.3333ZM20 20.3333C19.3407 20.3333 18.6962 20.1378 18.1481 19.7715C17.5999 19.4052 17.1727 18.8846 16.9204 18.2755C16.6681 17.6664 16.6021 16.9962 16.7307 16.3496C16.8593 15.703 17.1768 15.1091 17.643 14.6429C18.1091 14.1767 18.7031 13.8593 19.3497 13.7306C19.9963 13.602 20.6665 13.668 21.2756 13.9203C21.8847 14.1726 22.4053 14.5999 22.7715 15.148C23.1378 15.6962 23.3333 16.3406 23.3333 16.9999C23.3333 17.884 22.9821 18.7318 22.357 19.3569C21.7319 19.9821 20.884 20.3333 20 20.3333Z" fill="#BAA38F"/>
<path d="M20 40.3332C18.5965 40.3404 17.2118 40.0112 15.9617 39.3733C14.7117 38.7353 13.6326 37.8072 12.815 36.6665C6.4633 27.9048 3.24164 21.3182 3.24164 17.0882C3.24164 12.6436 5.00724 8.38103 8.15004 5.23824C11.2928 2.09544 15.5554 0.329834 20 0.329834C24.4446 0.329834 28.7071 2.09544 31.8499 5.23824C34.9927 8.38103 36.7583 12.6436 36.7583 17.0882C36.7583 21.3182 33.5366 27.9048 27.185 36.6665C26.3673 37.8072 25.2883 38.7353 24.0382 39.3733C22.7881 40.0112 21.4034 40.3404 20 40.3332ZM20 3.96817C16.5207 3.97214 13.185 5.35604 10.7248 7.81629C8.26452 10.2765 6.88061 13.6122 6.87664 17.0915C6.87664 20.4415 10.0316 26.6365 15.7583 34.5348C16.2445 35.2045 16.8823 35.7495 17.6195 36.1253C18.3567 36.5011 19.1725 36.697 20 36.697C20.8275 36.697 21.6432 36.5011 22.3804 36.1253C23.1177 35.7495 23.7555 35.2045 24.2416 34.5348C29.9683 26.6365 33.1233 20.4415 33.1233 17.0915C33.1193 13.6122 31.7354 10.2765 29.2752 7.81629C26.8149 5.35604 23.4793 3.97214 20 3.96817Z" fill="#BAA38F"/>
</g>
<defs>
<clipPath id="clip0_214_76">
<rect width="40" height="40" fill="white" transform="translate(0 0.333252)"/>
</clipPath>
</defs>
</svg>
