<svg width="40" height="40" viewBox="0 0 40 40" fill="none" xmlns="http://www.w3.org/2000/svg">
<g clip-path="url(#clip0_216_16674)">
<path d="M38.3333 18.3333H21.6667V1.66667C21.6667 1.22464 21.4911 0.800716 21.1785 0.488155C20.8659 0.175595 20.442 0 20 0C19.558 0 19.134 0.175595 18.8215 0.488155C18.5089 0.800716 18.3333 1.22464 18.3333 1.66667V18.3333H1.66667C1.22464 18.3333 0.800716 18.5089 0.488155 18.8215C0.175595 19.134 0 19.558 0 20C0 20.442 0.175595 20.8659 0.488155 21.1785C0.800716 21.4911 1.22464 21.6667 1.66667 21.6667H18.3333V38.3333C18.3333 38.7754 18.5089 39.1993 18.8215 39.5118C19.134 39.8244 19.558 40 20 40C20.442 40 20.8659 39.8244 21.1785 39.5118C21.4911 39.1993 21.6667 38.7754 21.6667 38.3333V21.6667H38.3333C38.7754 21.6667 39.1993 21.4911 39.5118 21.1785C39.8244 20.8659 40 20.442 40 20C40 19.558 39.8244 19.134 39.5118 18.8215C39.1993 18.5089 38.7754 18.3333 38.3333 18.3333Z" fill="#181818"/>
</g>
<defs>
<clipPath id="clip0_216_16674">
<rect width="40" height="40" fill="white"/>
</clipPath>
</defs>
</svg>
