<svg width="40" height="40" viewBox="0 0 40 40" fill="none" xmlns="http://www.w3.org/2000/svg">
<g clip-path="url(#clip0_216_16380)">
<path d="M2.22168 12.0633C0.806683 9.20329 -1.99998 2.11495 2.00002 0.249951C2.59472 0.00238925 3.24959 -0.0627658 3.88141 0.062767C4.51323 0.1883 5.09346 0.498852 5.54835 0.954951L13.815 9.78829C13.9712 9.94171 14.0956 10.1244 14.1812 10.3259C14.2667 10.5274 14.3118 10.7438 14.3137 10.9627C14.3156 11.1816 14.2744 11.3988 14.1924 11.6018C14.1104 11.8048 13.9893 11.9896 13.8358 12.1458C13.6824 12.3019 13.4997 12.4264 13.2982 12.5119C13.0967 12.5975 12.8803 12.6425 12.6614 12.6445C12.4425 12.6464 12.2253 12.6052 12.0224 12.5232C11.8194 12.4412 11.6345 12.32 11.4784 12.1666L3.33335 3.46662C3.53168 9.76162 7.23835 14.4666 11.4017 19.1983C11.7213 19.5055 11.9057 19.9271 11.9145 20.3703C11.9232 20.8135 11.7556 21.242 11.4483 21.5616C11.1411 21.8812 10.7196 22.0657 10.2763 22.0744C9.83314 22.0832 9.4046 21.9155 9.08502 21.6083C6.3492 18.774 4.03751 15.5591 2.22168 12.0633ZM30.0084 27C29.7813 26.7512 29.4977 26.5607 29.1815 26.4447C28.8653 26.3287 28.5258 26.2904 28.1917 26.3333C26.2583 26.5928 24.2915 26.4279 22.4284 25.85C22.143 25.7658 21.8402 25.7607 21.5522 25.8352C21.2643 25.9098 21.002 26.0612 20.7934 26.2733C18.3034 30.0333 26.25 29.795 27.98 29.74L37.1184 39.4716C37.2684 39.6312 37.4484 39.7596 37.6481 39.8496C37.8477 39.9396 38.0632 39.9894 38.2821 39.9961C38.501 40.0029 38.7191 39.9664 38.9239 39.8889C39.1287 39.8113 39.3163 39.6942 39.4758 39.5441C39.6354 39.3941 39.7639 39.2141 39.8538 39.0144C39.9438 38.8147 39.9936 38.5993 40.0004 38.3804C40.0071 38.1615 39.9706 37.9434 39.8931 37.7385C39.8155 37.5337 39.6984 37.3462 39.5484 37.1866L30.0084 27ZM25 23.3333C26.0943 23.3348 27.1782 23.1204 28.1895 22.7023C29.2008 22.2841 30.1196 21.6705 30.8934 20.8966L39.5117 12.2766C39.6666 12.1219 39.7896 11.9381 39.8736 11.7359C39.9575 11.5336 40.0008 11.3168 40.0009 11.0978C40.0011 10.8788 39.9581 10.6619 39.8745 10.4595C39.7908 10.2572 39.6681 10.0732 39.5134 9.91829C39.3586 9.76333 39.1749 9.64036 38.9726 9.55641C38.7703 9.47247 38.5535 9.42918 38.3345 9.42902C38.1155 9.42887 37.8987 9.47185 37.6963 9.55551C37.4939 9.63917 37.31 9.76188 37.155 9.91662L28.5367 18.5366C27.8048 19.2622 26.8665 19.7438 25.8504 19.9156C24.8342 20.0875 23.7898 19.9411 22.86 19.4966L34.5117 7.84495C34.6709 7.69121 34.7978 7.5073 34.8852 7.30396C34.9725 7.10062 35.0185 6.88192 35.0204 6.66062C35.0224 6.43932 34.9802 6.21985 34.8964 6.01503C34.8126 5.8102 34.6888 5.62411 34.5323 5.46763C34.3759 5.31114 34.1898 5.18738 33.9849 5.10358C33.7801 5.01978 33.5606 4.97761 33.3394 4.97953C33.1181 4.98146 32.8994 5.02743 32.696 5.11478C32.4927 5.20213 32.3088 5.3291 32.155 5.48828L20.5 17.14C20.0555 16.2102 19.9091 15.1657 20.081 14.1496C20.2528 13.1334 20.7345 12.1952 21.46 11.4633L30.0834 2.84495C30.3869 2.53061 30.5549 2.10961 30.5511 1.67262C30.5473 1.23562 30.3721 0.8176 30.063 0.508587C29.754 0.199573 29.336 0.0242914 28.899 0.0204941C28.462 0.0166967 28.041 0.184687 27.7267 0.488284L19.1067 9.10662C17.7513 10.4666 16.906 12.2522 16.7132 14.1627C16.5204 16.0731 16.9919 17.9916 18.0484 19.595L0.48835 37.155C0.184753 37.4693 0.0167622 37.8903 0.0205596 38.3273C0.024357 38.7643 0.199638 39.1823 0.508652 39.4913C0.817666 39.8003 1.23569 39.9756 1.67268 39.9794C2.10968 39.9832 2.53068 39.8152 2.84502 39.5116L20.405 21.9516C21.7681 22.8527 23.366 23.3332 25 23.3333Z" fill="white"/>
</g>
<defs>
<clipPath id="clip0_216_16380">
<rect width="40" height="40" fill="white"/>
</clipPath>
</defs>
</svg>
