<svg width="40" height="40" viewBox="0 0 40 40" fill="none" xmlns="http://www.w3.org/2000/svg">
<g clip-path="url(#clip0_216_16383)">
<path d="M11.6666 40.0002C13.5076 40.0002 15 38.5078 15 36.6668C15 34.8259 13.5076 33.3335 11.6666 33.3335C9.8257 33.3335 8.33331 34.8259 8.33331 36.6668C8.33331 38.5078 9.8257 40.0002 11.6666 40.0002Z" fill="white"/>
<path d="M28.3333 40.0002C30.1743 40.0002 31.6667 38.5078 31.6667 36.6668C31.6667 34.8259 30.1743 33.3335 28.3333 33.3335C26.4924 33.3335 25 34.8259 25 36.6668C25 38.5078 26.4924 40.0002 28.3333 40.0002Z" fill="white"/>
<path d="M39.475 2.22675C39.1625 1.9143 38.7386 1.73877 38.2967 1.73877C37.8547 1.73877 37.4309 1.9143 37.1183 2.22675L28.52 10.8334L25.935 8.13508C25.7833 7.97728 25.602 7.85089 25.4015 7.76314C25.201 7.67539 24.9852 7.628 24.7663 7.62367C24.5475 7.61933 24.3299 7.65814 24.1261 7.73789C23.9223 7.81763 23.7361 7.93674 23.5783 8.08842C23.4205 8.24009 23.2941 8.42136 23.2064 8.62189C23.1186 8.82241 23.0712 9.03825 23.0669 9.25708C23.0582 9.69904 23.2253 10.1264 23.5317 10.4451L26.2217 13.2434C26.5083 13.553 26.8547 13.8012 27.24 13.9731C27.6253 14.145 28.0415 14.237 28.4633 14.2434H28.5183C28.9318 14.2448 29.3413 14.164 29.7233 14.0058C30.1052 13.8476 30.452 13.6151 30.7433 13.3217L39.475 4.58341C39.7875 4.27087 39.963 3.84702 39.963 3.40508C39.963 2.96314 39.7875 2.53929 39.475 2.22675Z" fill="white"/>
<path d="M36.5 15.0267C36.2845 14.9877 36.0635 14.9916 35.8495 15.0382C35.6355 15.0847 35.4328 15.173 35.253 15.2979C35.0731 15.4228 34.9196 15.5819 34.8013 15.7661C34.683 15.9504 34.6021 16.1562 34.5633 16.3717L34.35 17.5533C34.1421 18.7072 33.5353 19.7513 32.6357 20.5032C31.736 21.2551 30.6008 21.6669 29.4283 21.6667H9.03L7.46333 8.33333H18.3333C18.7754 8.33333 19.1993 8.15774 19.5118 7.84518C19.8244 7.53262 20 7.10869 20 6.66667C20 6.22464 19.8244 5.80072 19.5118 5.48816C19.1993 5.17559 18.7754 5 18.3333 5H7.07L7 4.41333C6.85637 3.19766 6.27177 2.07692 5.35698 1.26351C4.44219 0.45009 3.26079 0.000521394 2.03667 0L1.66667 0C1.22464 0 0.800716 0.175595 0.488155 0.488155C0.175595 0.800716 0 1.22464 0 1.66667C0 2.10869 0.175595 2.53262 0.488155 2.84518C0.800716 3.15774 1.22464 3.33333 1.66667 3.33333H2.03667C2.44489 3.33339 2.8389 3.48326 3.14395 3.75453C3.44901 4.02579 3.6439 4.39958 3.69167 4.805L5.985 24.305C6.22309 26.333 7.19746 28.203 8.72318 29.56C10.2489 30.9171 12.2198 31.6667 14.2617 31.6667H31.6667C32.1087 31.6667 32.5326 31.4911 32.8452 31.1785C33.1577 30.866 33.3333 30.442 33.3333 30C33.3333 29.558 33.1577 29.1341 32.8452 28.8215C32.5326 28.5089 32.1087 28.3333 31.6667 28.3333H14.2617C13.2275 28.3335 12.2188 28.0131 11.3744 27.4161C10.5299 26.8191 9.89138 25.975 9.54667 25H29.4283C31.3822 25.0001 33.2739 24.3137 34.773 23.0607C36.2722 21.8077 37.2834 20.0678 37.63 18.145L37.8433 16.9617C37.9215 16.527 37.824 16.079 37.5721 15.7162C37.3202 15.3534 36.9346 15.1054 36.5 15.0267Z" fill="white"/>
</g>
<defs>
<clipPath id="clip0_216_16383">
<rect width="40" height="40" fill="white"/>
</clipPath>
</defs>
</svg>
