<svg width="40" height="40" viewBox="0 0 40 40" fill="none" xmlns="http://www.w3.org/2000/svg">
<g clip-path="url(#clip0_216_16392)">
<path d="M25 10C25 4.485 20.515 0 15 0C9.48502 0 5.00002 4.485 5.00002 10C5.00002 15.515 9.48502 20 15 20C20.515 20 25 15.515 25 10ZM15 16.6667C11.3234 16.6667 8.33335 13.6767 8.33335 10C8.33335 6.32333 11.3234 3.33333 15 3.33333C18.6767 3.33333 21.6667 6.32333 21.6667 10C21.6667 13.6767 18.6767 16.6667 15 16.6667ZM14.9867 24.8967C15.1 25.81 14.4534 26.6417 13.5384 26.7567C7.72002 27.4833 3.33169 32.4583 3.33169 38.3333C3.33169 39.2533 2.58502 40 1.66502 40C0.745019 40 -0.00164795 39.2533 -0.00164795 38.3333C-0.00164795 30.7817 5.64169 24.3833 13.125 23.45C14.0284 23.335 14.87 23.9833 14.985 24.8983L14.9867 24.8967ZM37.8267 31.8883L36.2034 30.9517C36.48 30.1233 36.6667 29.2533 36.6667 28.3317C36.6667 27.41 36.4817 26.54 36.2034 25.7117L37.8267 24.775C38.6234 24.315 38.8967 23.295 38.4367 22.4983C37.975 21.7 36.9584 21.425 36.16 21.8883L34.5384 22.825C33.3634 21.5017 31.7984 20.5333 30 20.1683V18.3333C30 17.4133 29.2534 16.6667 28.3334 16.6667C27.4134 16.6667 26.6667 17.4133 26.6667 18.3333V20.1683C24.8684 20.535 23.3034 21.5033 22.1284 22.825L20.5067 21.8883C19.7067 21.4267 18.69 21.7 18.23 22.4983C17.77 23.2967 18.0434 24.315 18.84 24.775L20.4634 25.7117C20.1867 26.54 20 27.41 20 28.3317C20 29.2533 20.185 30.1233 20.4634 30.9517L18.84 31.8883C18.0434 32.3483 17.77 33.3683 18.23 34.165C18.54 34.7 19.0984 34.9983 19.675 34.9983C19.9567 34.9983 20.2434 34.9267 20.5067 34.775L22.1284 33.8383C23.3034 35.1617 24.8684 36.13 26.6667 36.495V38.33C26.6667 39.25 27.4134 39.9967 28.3334 39.9967C29.2534 39.9967 30 39.25 30 38.33V36.495C31.7984 36.1283 33.3634 35.16 34.5384 33.8383L36.16 34.775C36.4234 34.9267 36.71 34.9983 36.9917 34.9983C37.5684 34.9983 38.1284 34.7 38.4367 34.165C38.8967 33.3667 38.6234 32.3483 37.8267 31.8883ZM28.3334 33.3317C25.5767 33.3317 23.3334 31.0883 23.3334 28.3317C23.3334 25.575 25.5767 23.3317 28.3334 23.3317C31.09 23.3317 33.3334 25.575 33.3334 28.3317C33.3334 31.0883 31.09 33.3317 28.3334 33.3317Z" fill="white"/>
</g>
<defs>
<clipPath id="clip0_216_16392">
<rect width="40" height="40" fill="white"/>
</clipPath>
</defs>
</svg>
