<svg width="40" height="40" viewBox="0 0 40 40" fill="none" xmlns="http://www.w3.org/2000/svg">
<g clip-path="url(#clip0_239_780)">
<path d="M21.6667 38.3333C21.6667 39.2533 20.92 40 20 40H8.33333C3.73833 40 0 36.2617 0 31.6667V8.33333C0 3.73833 3.73833 0 8.33333 0H18.3333C22.9283 0 26.6667 3.73833 26.6667 8.33333V16.6667C26.6667 17.5867 25.92 18.3333 25 18.3333C24.08 18.3333 23.3333 17.5867 23.3333 16.6667V8.33333C23.3333 5.57667 21.09 3.33333 18.3333 3.33333H8.33333C5.57667 3.33333 3.33333 5.57667 3.33333 8.33333V31.6667C3.33333 34.4233 5.57667 36.6667 8.33333 36.6667H20C20.92 36.6667 21.6667 37.4133 21.6667 38.3333ZM10 21.6667H8.33333C7.41333 21.6667 6.66667 22.4133 6.66667 23.3333C6.66667 24.2533 7.41333 25 8.33333 25H10C10.92 25 11.6667 24.2533 11.6667 23.3333C11.6667 22.4133 10.92 21.6667 10 21.6667ZM18.3333 21.6667H16.6667C15.7467 21.6667 15 22.4133 15 23.3333C15 24.2533 15.7467 25 16.6667 25H18.3333C19.2533 25 20 24.2533 20 23.3333C20 22.4133 19.2533 21.6667 18.3333 21.6667ZM10 28.3333H8.33333C7.41333 28.3333 6.66667 29.08 6.66667 30C6.66667 30.92 7.41333 31.6667 8.33333 31.6667H10C10.92 31.6667 11.6667 30.92 11.6667 30C11.6667 29.08 10.92 28.3333 10 28.3333ZM18.3333 28.3333H16.6667C15.7467 28.3333 15 29.08 15 30C15 30.92 15.7467 31.6667 16.6667 31.6667H18.3333C19.2533 31.6667 20 30.92 20 30C20 29.08 19.2533 28.3333 18.3333 28.3333ZM10 8.33333H8.33333C7.41333 8.33333 6.66667 9.08 6.66667 10C6.66667 10.92 7.41333 11.6667 8.33333 11.6667H10C10.92 11.6667 11.6667 10.92 11.6667 10C11.6667 9.08 10.92 8.33333 10 8.33333ZM18.3333 8.33333H16.6667C15.7467 8.33333 15 9.08 15 10C15 10.92 15.7467 11.6667 16.6667 11.6667H18.3333C19.2533 11.6667 20 10.92 20 10C20 9.08 19.2533 8.33333 18.3333 8.33333ZM10 15H8.33333C7.41333 15 6.66667 15.7467 6.66667 16.6667C6.66667 17.5867 7.41333 18.3333 8.33333 18.3333H10C10.92 18.3333 11.6667 17.5867 11.6667 16.6667C11.6667 15.7467 10.92 15 10 15ZM18.3333 15H16.6667C15.7467 15 15 15.7467 15 16.6667C15 17.5867 15.7467 18.3333 16.6667 18.3333H18.3333C19.2533 18.3333 20 17.5867 20 16.6667C20 15.7467 19.2533 15 18.3333 15ZM37.315 35.6483L34.2483 38.6483C33.3067 39.57 32.07 40.03 30.8333 40.03C29.5967 40.03 28.36 39.57 27.4183 38.6483L24.3633 35.6617C20.7767 32.075 20.7767 26.2583 24.35 22.685C26.0817 20.9533 28.3833 20 30.8317 20C33.28 20 35.5817 20.9533 37.3133 22.6833C40.8883 26.2583 40.89 32.0733 37.315 35.6483ZM34.9583 25.0417C33.855 23.94 32.39 23.3333 30.8333 23.3333C29.2767 23.3333 27.81 23.94 26.7083 25.0417C24.4333 27.315 24.4333 31.0167 26.7083 33.2917L29.75 36.265C30.3467 36.85 31.32 36.85 31.9183 36.265L34.9733 33.2783C37.235 31.0167 37.2333 27.315 34.9583 25.0417ZM30.8333 26.6567C29.4533 26.6567 28.3333 27.7767 28.3333 29.1567C28.3333 30.5367 29.4533 31.6567 30.8333 31.6567C32.2133 31.6567 33.3333 30.5367 33.3333 29.1567C33.3333 27.7767 32.2133 26.6567 30.8333 26.6567Z" fill="white"/>
</g>
<defs>
<clipPath id="clip0_239_780">
<rect width="40" height="40" fill="white"/>
</clipPath>
</defs>
</svg>
